<svg width="20" height="20" viewBox="0 0 20 20" fill="none" xmlns="http://www.w3.org/2000/svg">
<path fill-rule="evenodd" clip-rule="evenodd" d="M13.7917 0C16.9072 0 19 2.16273 19 5.38122V14.6188C19 17.8654 16.9716 19.9769 13.8324 19.997L6.20925 20C3.09381 20 1 17.8373 1 14.6188V5.38122C1 2.1336 3.02841 0.023104 6.16763 0.00401808L13.7908 0H13.7917ZM13.7917 1.50678L6.17259 1.5108C3.86573 1.52486 2.48637 2.97137 2.48637 5.38122V14.6188C2.48637 17.0447 3.87861 18.4932 6.20826 18.4932L13.8274 18.4902C16.1343 18.4761 17.5136 17.0276 17.5136 14.6188V5.38122C17.5136 2.9553 16.1224 1.50678 13.7917 1.50678ZM13.6006 13.5346C14.0108 13.5346 14.3438 13.8721 14.3438 14.288C14.3438 14.7039 14.0108 15.0414 13.6006 15.0414H6.44618C6.03594 15.0414 5.70299 14.7039 5.70299 14.288C5.70299 13.8721 6.03594 13.5346 6.44618 13.5346H13.6006ZM13.6006 9.32918C14.0108 9.32918 14.3438 9.6667 14.3438 10.0826C14.3438 10.4984 14.0108 10.836 13.6006 10.836H6.44618C6.03594 10.836 5.70299 10.4984 5.70299 10.0826C5.70299 9.6667 6.03594 9.32918 6.44618 9.32918H13.6006ZM9.17586 5.1335C9.58609 5.1335 9.91904 5.47102 9.91904 5.88689C9.91904 6.30276 9.58609 6.64028 9.17586 6.64028H6.44588C6.03564 6.64028 5.70269 6.30276 5.70269 5.88689C5.70269 5.47102 6.03564 5.1335 6.44588 5.1335H9.17586Z" fill="white"/>
</svg>
